<mxfile host="app.diagrams.net" modified="2020-11-23T19:01:06.232Z" agent="5.0 (Windows NT 10.0; Win64; x64) AppleWebKit/537.36 (KHTML, like Gecko) Chrome/86.0.4240.198 Safari/537.36" etag="YX9S_cF31ylKLm4Jx0q2" version="13.10.1" type="github" pages="2">
  <diagram id="EVOGl2njMggvPU202JX9" name="Page-1">
    <mxGraphModel dx="868" dy="460" grid="1" gridSize="10" guides="1" tooltips="1" connect="1" arrows="1" fold="1" page="1" pageScale="1" pageWidth="827" pageHeight="1169" background="none" math="0" shadow="1">
      <root>
        <mxCell id="0" />
        <mxCell id="1" parent="0" />
        <mxCell id="RSSZcuojvApWgf0Gu_4k-2" style="edgeStyle=orthogonalEdgeStyle;rounded=0;orthogonalLoop=1;jettySize=auto;html=1;exitX=0.5;exitY=0.5;exitDx=0;exitDy=0;exitPerimeter=0;entryX=0.5;entryY=0.5;entryDx=0;entryDy=0;entryPerimeter=0;" parent="1" source="RSSZcuojvApWgf0Gu_4k-1" target="RSSZcuojvApWgf0Gu_4k-1" edge="1">
          <mxGeometry relative="1" as="geometry">
            <mxPoint x="260" y="475" as="targetPoint" />
          </mxGeometry>
        </mxCell>
        <mxCell id="Raksr3vVa8RkC0D91iYu-15" style="edgeStyle=orthogonalEdgeStyle;rounded=0;orthogonalLoop=1;jettySize=auto;html=1;entryX=0;entryY=0.25;entryDx=0;entryDy=0;strokeColor=#000000;fontColor=#3399FF;" parent="1" source="RSSZcuojvApWgf0Gu_4k-1" target="Raksr3vVa8RkC0D91iYu-7" edge="1">
          <mxGeometry relative="1" as="geometry" />
        </mxCell>
        <mxCell id="RSSZcuojvApWgf0Gu_4k-1" value="&lt;font size=&quot;1&quot; color=&quot;#000000&quot;&gt;&lt;b style=&quot;font-size: 17px&quot;&gt;User&lt;/b&gt;&lt;/font&gt;" style="shape=umlActor;verticalLabelPosition=bottom;verticalAlign=top;html=1;outlineConnect=0;fillColor=#1ba1e2;strokeColor=#006EAF;fontColor=#ffffff;" parent="1" vertex="1">
          <mxGeometry x="20" y="140" width="50" height="110" as="geometry" />
        </mxCell>
        <mxCell id="RSSZcuojvApWgf0Gu_4k-6" value="&lt;font style=&quot;font-size: 24px&quot;&gt;&lt;b&gt;System Architecture&lt;/b&gt;&lt;/font&gt;" style="text;html=1;align=center;verticalAlign=middle;whiteSpace=wrap;rounded=1;fontColor=#ffffff;shadow=1;glass=0;sketch=0;gradientDirection=south;strokeColor=#FFFF33;gradientColor=#CCCCCC;fillColor=#3333FF;fillStyle=solid;" parent="1" vertex="1">
          <mxGeometry x="275" y="40" width="260" height="60" as="geometry" />
        </mxCell>
        <mxCell id="RSSZcuojvApWgf0Gu_4k-7" value="" style="whiteSpace=wrap;html=1;rounded=0;shadow=0;glass=0;sketch=0;strokeColor=#82b366;fillColor=#CCFFCC;" parent="1" vertex="1">
          <mxGeometry x="32.5" y="490" width="730" height="300" as="geometry" />
        </mxCell>
        <mxCell id="RSSZcuojvApWgf0Gu_4k-21" value="&lt;font size=&quot;1&quot;&gt;&lt;b style=&quot;font-size: 18px&quot;&gt;Material&lt;/b&gt;&lt;/font&gt;" style="rounded=0;whiteSpace=wrap;html=1;shadow=0;glass=0;sketch=0;fillColor=#60a917;strokeColor=#2D7600;fontColor=#ffffff;" parent="1" vertex="1">
          <mxGeometry x="160" y="510" width="550" height="40" as="geometry" />
        </mxCell>
        <mxCell id="RSSZcuojvApWgf0Gu_4k-22" value="&lt;font color=&quot;#000000&quot; style=&quot;font-size: 14px&quot;&gt;&lt;b&gt;Framework&lt;br&gt;Dart&lt;/b&gt;&lt;/font&gt;" style="text;html=1;strokeColor=none;fillColor=none;align=center;verticalAlign=middle;whiteSpace=wrap;rounded=0;shadow=1;glass=0;sketch=0;fontColor=#3399FF;" parent="1" vertex="1">
          <mxGeometry x="50" y="630" width="100" height="30" as="geometry" />
        </mxCell>
        <mxCell id="RSSZcuojvApWgf0Gu_4k-23" value="&lt;span style=&quot;font-size: 16px&quot;&gt;&lt;b&gt;Wedgets&lt;/b&gt;&lt;/span&gt;" style="rounded=0;whiteSpace=wrap;html=1;shadow=0;glass=0;sketch=0;strokeColor=#2D7600;fillColor=#60a917;fontColor=#ffffff;" parent="1" vertex="1">
          <mxGeometry x="160" y="564.5" width="550" height="40" as="geometry" />
        </mxCell>
        <mxCell id="RSSZcuojvApWgf0Gu_4k-25" value="&lt;b&gt;&lt;font style=&quot;font-size: 15px&quot;&gt;Rendering&lt;/font&gt;&lt;/b&gt;" style="rounded=0;whiteSpace=wrap;html=1;shadow=0;glass=0;sketch=0;strokeColor=#2D7600;fillColor=#60a917;fontColor=#ffffff;" parent="1" vertex="1">
          <mxGeometry x="160" y="620" width="550" height="40" as="geometry" />
        </mxCell>
        <mxCell id="RSSZcuojvApWgf0Gu_4k-29" value="&lt;font style=&quot;font-size: 16px&quot;&gt;&lt;b&gt;Animation&lt;/b&gt;&lt;/font&gt;" style="rounded=0;whiteSpace=wrap;html=1;shadow=0;glass=0;sketch=0;fillColor=#60a917;strokeColor=#2D7600;fontColor=#ffffff;" parent="1" vertex="1">
          <mxGeometry x="160" y="680" width="170" height="40" as="geometry" />
        </mxCell>
        <mxCell id="RSSZcuojvApWgf0Gu_4k-30" value="&lt;b&gt;&lt;font style=&quot;font-size: 14px&quot;&gt;Painting&lt;/font&gt;&lt;/b&gt;" style="rounded=0;whiteSpace=wrap;html=1;shadow=0;glass=0;sketch=0;fillColor=#60a917;strokeColor=#2D7600;fontColor=#ffffff;" parent="1" vertex="1">
          <mxGeometry x="355" y="680" width="180" height="40" as="geometry" />
        </mxCell>
        <mxCell id="RSSZcuojvApWgf0Gu_4k-31" value="&lt;b&gt;&lt;font style=&quot;font-size: 14px&quot;&gt;Gestures&lt;/font&gt;&lt;/b&gt;" style="rounded=0;whiteSpace=wrap;html=1;shadow=0;glass=0;sketch=0;fillColor=#60a917;strokeColor=#2D7600;fontColor=#ffffff;" parent="1" vertex="1">
          <mxGeometry x="545" y="680" width="165" height="40" as="geometry" />
        </mxCell>
        <mxCell id="RSSZcuojvApWgf0Gu_4k-32" value="&lt;b&gt;&lt;font style=&quot;font-size: 14px&quot;&gt;Foundation&lt;/font&gt;&lt;/b&gt;" style="rounded=0;whiteSpace=wrap;html=1;shadow=0;glass=0;sketch=0;strokeColor=#2D7600;fillColor=#60a917;fontColor=#ffffff;" parent="1" vertex="1">
          <mxGeometry x="160" y="740" width="550" height="40" as="geometry" />
        </mxCell>
        <mxCell id="RSSZcuojvApWgf0Gu_4k-37" value="" style="whiteSpace=wrap;html=1;rounded=0;shadow=0;glass=0;sketch=0;strokeColor=#6c8ebf;fillColor=#dae8fc;" parent="1" vertex="1">
          <mxGeometry x="32.5" y="820" width="730" height="290" as="geometry" />
        </mxCell>
        <mxCell id="RSSZcuojvApWgf0Gu_4k-38" value="&lt;font size=&quot;1&quot;&gt;&lt;b style=&quot;font-size: 18px&quot;&gt;AR&lt;/b&gt;&lt;/font&gt;" style="rounded=0;whiteSpace=wrap;html=1;shadow=0;glass=0;sketch=0;fillColor=#0050ef;strokeColor=#001DBC;fontColor=#ffffff;" parent="1" vertex="1">
          <mxGeometry x="200" y="890" width="550" height="40" as="geometry" />
        </mxCell>
        <mxCell id="RSSZcuojvApWgf0Gu_4k-39" value="&lt;font color=&quot;#000000&quot;&gt;&lt;span style=&quot;font-size: 14px&quot;&gt;&lt;b&gt;Unity&lt;br&gt;&amp;nbsp;Engine&lt;/b&gt;&lt;/span&gt;&lt;/font&gt;" style="text;html=1;strokeColor=none;fillColor=none;align=center;verticalAlign=middle;whiteSpace=wrap;rounded=0;shadow=0;glass=0;sketch=0;fontColor=#3399FF;" parent="1" vertex="1">
          <mxGeometry x="70" y="955" width="90" height="30" as="geometry" />
        </mxCell>
        <mxCell id="RSSZcuojvApWgf0Gu_4k-40" value="&lt;b&gt;&lt;span style=&quot;font-size: 18px&quot;&gt;vuforia &lt;/span&gt;&lt;font style=&quot;font-size: 16px&quot;&gt;SDK&lt;/font&gt;&lt;/b&gt;" style="rounded=0;whiteSpace=wrap;html=1;shadow=0;glass=0;sketch=0;fillColor=#0050ef;strokeColor=#001DBC;fontColor=#ffffff;" parent="1" vertex="1">
          <mxGeometry x="200" y="1000" width="550" height="40" as="geometry" />
        </mxCell>
        <mxCell id="RSSZcuojvApWgf0Gu_4k-41" value="&lt;font size=&quot;1&quot;&gt;&lt;b style=&quot;font-size: 18px&quot;&gt;AR camera&lt;/b&gt;&lt;/font&gt;" style="rounded=0;whiteSpace=wrap;html=1;shadow=0;glass=0;sketch=0;fillColor=#0050ef;strokeColor=#001DBC;fontColor=#ffffff;" parent="1" vertex="1">
          <mxGeometry x="200" y="945" width="265" height="40" as="geometry" />
        </mxCell>
        <mxCell id="RSSZcuojvApWgf0Gu_4k-42" value="&lt;font size=&quot;1&quot;&gt;&lt;b style=&quot;font-size: 18px&quot;&gt;AR&lt;/b&gt;&lt;/font&gt;" style="rounded=0;whiteSpace=wrap;html=1;shadow=0;glass=0;sketch=0;fillColor=#0050ef;strokeColor=#001DBC;fontColor=#ffffff;" parent="1" vertex="1">
          <mxGeometry x="475" y="945" width="275" height="40" as="geometry" />
        </mxCell>
        <mxCell id="RSSZcuojvApWgf0Gu_4k-43" value="&lt;font size=&quot;1&quot;&gt;&lt;b style=&quot;font-size: 18px&quot;&gt;Tracker&lt;/b&gt;&lt;/font&gt;" style="rounded=0;whiteSpace=wrap;html=1;shadow=0;glass=0;sketch=0;fillColor=#0050ef;strokeColor=#001DBC;fontColor=#ffffff;" parent="1" vertex="1">
          <mxGeometry x="200" y="840" width="550" height="40" as="geometry" />
        </mxCell>
        <mxCell id="RSSZcuojvApWgf0Gu_4k-45" value="&lt;span style=&quot;font-size: 18px&quot;&gt;&lt;b&gt;C#&amp;nbsp;&lt;/b&gt;&lt;/span&gt;" style="rounded=0;whiteSpace=wrap;html=1;shadow=0;glass=0;sketch=0;fillColor=#0050ef;strokeColor=#001DBC;fontColor=#ffffff;" parent="1" vertex="1">
          <mxGeometry x="200" y="1050" width="550" height="40" as="geometry" />
        </mxCell>
        <mxCell id="Raksr3vVa8RkC0D91iYu-4" value="&lt;b&gt;&lt;font style=&quot;font-size: 20px&quot;&gt;Firebase&lt;/font&gt;&lt;/b&gt;" style="shape=datastore;whiteSpace=wrap;html=1;rounded=0;shadow=0;glass=0;sketch=0;strokeColor=#10739e;fillColor=#b1ddf0;" parent="1" vertex="1">
          <mxGeometry x="10" y="380" width="160" height="80" as="geometry" />
        </mxCell>
        <mxCell id="Raksr3vVa8RkC0D91iYu-10" style="edgeStyle=orthogonalEdgeStyle;rounded=0;orthogonalLoop=1;jettySize=auto;html=1;fontColor=#3399FF;" parent="1" source="Raksr3vVa8RkC0D91iYu-7" edge="1">
          <mxGeometry relative="1" as="geometry">
            <mxPoint x="410" y="270" as="targetPoint" />
          </mxGeometry>
        </mxCell>
        <mxCell id="Raksr3vVa8RkC0D91iYu-20" style="edgeStyle=orthogonalEdgeStyle;rounded=0;orthogonalLoop=1;jettySize=auto;html=1;entryX=0.5;entryY=0;entryDx=0;entryDy=0;strokeColor=#000000;fontColor=#3399FF;" parent="1" source="Raksr3vVa8RkC0D91iYu-7" target="Raksr3vVa8RkC0D91iYu-19" edge="1">
          <mxGeometry relative="1" as="geometry" />
        </mxCell>
        <mxCell id="Raksr3vVa8RkC0D91iYu-7" value="&lt;font size=&quot;1&quot;&gt;&lt;b style=&quot;font-size: 32px&quot;&gt;app&lt;/b&gt;&lt;/font&gt;" style="rounded=1;whiteSpace=wrap;html=1;shadow=0;glass=0;sketch=0;strokeColor=#10739e;fillColor=#b1ddf0;" parent="1" vertex="1">
          <mxGeometry x="289" y="180" width="250" height="60" as="geometry" />
        </mxCell>
        <mxCell id="Raksr3vVa8RkC0D91iYu-13" style="edgeStyle=orthogonalEdgeStyle;rounded=0;orthogonalLoop=1;jettySize=auto;html=1;entryX=0.5;entryY=0;entryDx=0;entryDy=0;strokeColor=#000000;fontColor=#3399FF;" parent="1" source="Raksr3vVa8RkC0D91iYu-9" target="Raksr3vVa8RkC0D91iYu-12" edge="1">
          <mxGeometry relative="1" as="geometry" />
        </mxCell>
        <mxCell id="Raksr3vVa8RkC0D91iYu-25" style="edgeStyle=orthogonalEdgeStyle;rounded=0;orthogonalLoop=1;jettySize=auto;html=1;strokeColor=#000000;fontColor=#3399FF;" parent="1" source="Raksr3vVa8RkC0D91iYu-9" edge="1">
          <mxGeometry relative="1" as="geometry">
            <mxPoint x="414.0000000000002" y="370" as="targetPoint" />
          </mxGeometry>
        </mxCell>
        <mxCell id="Raksr3vVa8RkC0D91iYu-9" value="&lt;span style=&quot;font-size: 25px&quot;&gt;&lt;b&gt;Navigator stack&lt;/b&gt;&lt;/span&gt;" style="rounded=1;whiteSpace=wrap;html=1;shadow=0;glass=0;sketch=0;strokeColor=#10739e;fillColor=#b1ddf0;" parent="1" vertex="1">
          <mxGeometry x="294" y="260" width="240" height="60" as="geometry" />
        </mxCell>
        <mxCell id="Raksr3vVa8RkC0D91iYu-27" style="edgeStyle=orthogonalEdgeStyle;rounded=0;orthogonalLoop=1;jettySize=auto;html=1;strokeColor=#000000;fontColor=#3399FF;" parent="1" source="Raksr3vVa8RkC0D91iYu-12" target="Raksr3vVa8RkC0D91iYu-23" edge="1">
          <mxGeometry relative="1" as="geometry" />
        </mxCell>
        <mxCell id="Raksr3vVa8RkC0D91iYu-12" value="&lt;font style=&quot;font-size: 28px&quot;&gt;&lt;b&gt;Login page&lt;/b&gt;&lt;/font&gt;" style="rounded=1;whiteSpace=wrap;html=1;shadow=0;glass=0;sketch=0;strokeColor=#10739e;fillColor=#b1ddf0;" parent="1" vertex="1">
          <mxGeometry x="600" y="360" width="190" height="60" as="geometry" />
        </mxCell>
        <mxCell id="Raksr3vVa8RkC0D91iYu-19" value="&lt;font style=&quot;font-size: 21px&quot;&gt;&lt;b&gt;data model&lt;/b&gt;&lt;/font&gt;" style="text;html=1;strokeColor=#10739e;align=center;verticalAlign=middle;whiteSpace=wrap;rounded=0;shadow=0;glass=0;sketch=0;fillColor=#b1ddf0;" parent="1" vertex="1">
          <mxGeometry x="10" y="330" width="170" height="40" as="geometry" />
        </mxCell>
        <mxCell id="Raksr3vVa8RkC0D91iYu-23" value="&lt;b&gt;&lt;font style=&quot;font-size: 21px&quot;&gt;Tour guide view&lt;/font&gt;&lt;/b&gt;" style="rounded=1;whiteSpace=wrap;html=1;shadow=0;glass=0;sketch=0;strokeColor=#10739e;fillColor=#b1ddf0;" parent="1" vertex="1">
          <mxGeometry x="290" y="360" width="250" height="60" as="geometry" />
        </mxCell>
      </root>
    </mxGraphModel>
  </diagram>
  <diagram id="tb46RmPqevMS7dmeH0NX" name="Page-2">
    <mxGraphModel dx="868" dy="403" grid="1" gridSize="10" guides="1" tooltips="1" connect="1" arrows="1" fold="1" page="1" pageScale="1" pageWidth="827" pageHeight="1169" math="0" shadow="0">
      <root>
        <mxCell id="BnbEfTn1sDfdEeJZjJls-0" />
        <mxCell id="BnbEfTn1sDfdEeJZjJls-1" parent="BnbEfTn1sDfdEeJZjJls-0" />
      </root>
    </mxGraphModel>
  </diagram>
</mxfile>
